# xmcd
#
# Track frame offsets: 
#        150
#        13205
#        26041
#        35814
#        46951
#        59540
#        70352
#        80575
#        93373
#        105712
#        117410
#        130932
#        142189
#        155195
#        166811
#        178908
#        188229
#        199374
#        211895
#        224765
#        237654
#        249652
#        261323
#        273134
#        285659
#        297119
#        311787
#        322798
#        336873
#
# Disc length: 4651 seconds
#
# Revision: 3
# Processed by: cddbd v1.5.2PL0 Copyright (c) Steve Scherf et al.
# Submitted via: ExactAudioCopyFreeDBPlugin 1.0
#
DISCID=d712291d
DTITLE=Various Artist - We're Gonna Rock, We're Gonna Roll
DYEAR=2005
DGENRE=Rock
TTITLE0=Arthur Crudup - That's All Right
TTITLE1=Big Mama Thornton - Hound Dog
TTITLE2=T-Bone Walker - Party Girl
TTITLE3=Johnny Ace - Pledging My Love
TTITLE4=Wynonie Harris - Good Rockin' Tonight
TTITLE5=Little Junior's Blue Flames - Mystery Train
TTITLE6=Cecil Grant - We're Gonna Rock
TTITLE7=Wild Bill Moore - Rock and Roll
TTITLE8=Roy Brown - Rockin' at Midnight
TTITLE9=Jimmy Preston - Rock The Joint
TTITLE10=Big Joe Turner - Shake Rattle and Roll
TTITLE11=Laverne Ray - Rock and Roll
TTITLE12=Tiny Grimes - Why Do You Waste My Time
TTITLE13=John Lee Hooker - Shake Holler and Run
TTITLE14=Jack "The Bear" Parker - I Need You I Want You
TTITLE15=T-Bone Walker - Teenage Baby
TTITLE16=Piano Red - Rockin' with Red
TTITLE17=Tiny Bradshaw - Train Kept A-Rollin'
TTITLE18=Ray Charles - I Got a Woman
TTITLE19=Billy Wright - Hey Little Girl
TTITLE20=Amos Milburn - Let's Rock a While
TTITLE21=Dolly Cooper - I Wanna Know (What Cha Doin' Down There)
TTITLE22=Fats Domino - The Fat Man
TTITLE23=Smiley Lewis - Bee's Boogie
TTITLE24=Lloyd Price - Lawdy Miss Clawdy
TTITLE25=Stick McGee - Drinkin' Wine Spo-Dee-O-Dee
TTITLE26=Dave Bartholomew - Country Girl
TTITLE27=Paul Williams - The Hucklebuck
TTITLE28=Wild Bill Moore - We're Gonna Rock We're Gonna Roll
EXTD=
EXTT0=
EXTT1=
EXTT2=
EXTT3=
EXTT4=
EXTT5=
EXTT6=
EXTT7=
EXTT8=
EXTT9=
EXTT10=
EXTT11=
EXTT12=
EXTT13=
EXTT14=
EXTT15=
EXTT16=
EXTT17=
EXTT18=
EXTT19=
EXTT20=
EXTT21=
EXTT22=
EXTT23=
EXTT24=
EXTT25=
EXTT26=
EXTT27=
EXTT28=
PLAYORDER=
